<?xml version="1.0" encoding="UTF-8"?><svg id="a" xmlns="http://www.w3.org/2000/svg" viewBox="0 0 496 492"><defs><style>.b{fill:#fff;}</style></defs><path class="b" d="M496,55v437h-56.43c4.53-1.69,9.21-3.07,13.57-5.14,6.15-2.93,11.22-7.11,15.79-12.5,6.07-7.18,9.55-15.17,9.92-24.17.22-5.2-1.36-10.77-3.31-15.69-1.91-4.82-4.95-9.33-8.18-13.42-2.93-3.7-6.94-6.51-10.19-9.99-3.41-3.64-6.1-8.03-9.76-11.34-9.85-8.9-19.4-18.06-28.51-27.74-8.99-9.55-18.94-18.19-28.32-27.38-7.93-7.77-15.62-15.8-23.48-23.65-6.81-6.8-13.69-13.52-20.59-20.23-3.53-3.44-7.29-6.64-10.72-10.17-7.09-7.28-14.16-14.6-20.99-22.12-5.01-5.53-10.06-11.14-12.19-18.65-.1-.35-1.28-.79-1.58-.6-.58.38-1.07,1.12-1.3,1.8-4.69,14.12-11.36,27.19-20.77,38.68-3.91,4.77-7.78,10.56-12.99,13.05-8.99,4.29-18.91,6.78-28.65,9.15-3.31.81-7.98.07-10.77-1.84-9.45-6.45-18.73-13.29-27.27-20.89-4.59-4.08-8.64-9.56-10.99-15.24-3.49-8.41-6.89-17.28-4.17-26.93,1.74-6.17,2.33-12.84,5.01-18.53,2.92-6.2,7.54-11.61,11.66-17.19,7.4-10.02,17.85-15.82,28.89-20.74,1.82-.81,3.55-1.86,4.55-2.38-5.63-5.34-10.71-9.9-15.5-14.76-5.01-5.09-9.59-10.62-14.65-15.65-3.87-3.85-8.45-6.96-12.27-10.85-8.21-8.37-16.18-16.98-24.16-25.58-3.65-3.93-6.92-8.22-10.67-12.03-6.19-6.28-12.73-12.2-18.94-18.46-9.18-9.26-17.21-20.03-27.52-27.71-13.01-9.68-23.87-21.88-37.46-30.78-3.01-1.97-4.81-5.74-7.67-8.06-4.06-3.3-8.67-5.92-12.9-9.04-6-4.42-18.8-1.15-22.36,5-3.39,5.85-7.74,11.2-12.17,16.33-3.96,4.59-9.03,8.24-12.81,12.95-2.34,2.93-6.12,6.78-3.19,10.98,4.12,5.9,8.92,11.37,13.87,16.6,3.81,4.03,8.49,7.22,12.44,11.14,3.72,3.69,6.76,8.08,10.54,11.7,2.84,2.72,6.7,4.36,9.55,7.08,5.53,5.28,10.66,10.98,15.95,16.51,1.31,1.37,2.62,2.75,3.9,4.15,3.43,3.72,6.64,7.67,10.31,11.13,10.56,9.96,21.36,19.66,31.94,29.6,3.38,3.18,5.81,7.76,9.65,9.97,5.96,3.43,10.78,7.82,15.2,12.9,1.06,1.22,1.99,2.55,3.11,3.7,3.98,4.11,8.15,8.04,11.99,12.27,3.67,4.04,6.81,8.58,10.56,12.53,3.66,3.85,8.08,6.97,11.66,10.89,3.99,4.37,7.4,9.27,10.66,13.42-3.32,3.93-5.73,6.94-8.3,9.81-5.22,5.82-10.37,11.71-15.81,17.31-6.94,7.14-15.1,13.31-20.93,21.25-4.52,6.16-11.32,8.19-16.35,13.04-2.7,2.6-6.06,4.85-9.52,6.23-6.27,2.51-12.87,4.18-19.29,6.32-7.61,2.55-15,6.39-22.8,7.6-14.65,2.28-26.32,10.54-37.57,18.69-10.26,7.44-16.87,19.03-22.89,30.41-1.51,2.85-3.22,5.85-3.68,8.95-2.05,13.83-4.16,27.57-1.73,41.75,2.92,17.07,10.48,31.94,22.68,43.13,12.21,11.2,26.21,21.04,44.27,21.03,2.28,0,4.56,1.55,6.85,2.39H0V0c138.27,0,276.55,0,414.82,0-4.51,2.34-8.78,5.5-13.56,6.85-13.4,3.8-25.58,10.15-36.47,18.49-10.65,8.15-19.09,18.4-19.27,33.18-.05,4.11-.27,8.24-.77,12.32-.58,4.68-.37,10.04-2.63,13.81-4.31,7.22-9.72,13.91-15.42,20.11-8.44,9.18-17.63,17.64-26.32,26.59-6.3,6.48-12.28,13.28-18.46,19.89-2.65,2.84-5.56,5.44-8.15,8.33-3.76,4.2-7.07,8.85-11.06,12.8-5.78,5.71-12,10.95-18.39,16.72,5.39,1.58,10.08,2.95,14.77,4.33,8.25,2.44,13.7,8.7,19.97,14.12,10.4,9,16.21,20.19,19.01,33.4.32,1.49,1.45,2.8,2.67,5.05,1.03-3.38,1.14-5.95,2.42-7.55,6.35-7.91,12.87-15.7,19.62-23.26,4.19-4.7,9-8.82,13.35-13.38,7.9-8.29,15.48-16.9,23.53-25.03,7.05-7.12,14.5-13.86,21.94-20.58,2.84-2.56,5.84-5.43,9.3-6.7,8.35-3.06,16.7-5.91,25.97-5.97,10.69-.07,21.71-.46,31.97-3.13,11.37-2.96,19.89-11.57,26.16-21.51,8.38-13.3,10.54-29,14.97-43.8,2-6.7,4.04-13.4,6.06-20.1ZM237.27,276.22c10.59.31,22.04-11.4,20.23-22.82-1.66-10.43-9.16-17.61-17.79-16.36-10.02,1.45-16.86,7.22-20.56,16.09-1.58,3.78-1.71,9.72.2,13.12,3.62,6.43,10.1,10.02,17.92,9.97Z"/><path d="M78.21,492c-2.28-.83-4.56-2.39-6.85-2.39-18.06.01-32.05-9.83-44.27-21.03-12.2-11.19-19.76-26.06-22.68-43.13-2.43-14.18-.32-27.92,1.73-41.75.46-3.1,2.17-6.1,3.68-8.95,6.02-11.38,12.64-22.97,22.89-30.41,11.25-8.16,22.92-16.41,37.57-18.69,7.8-1.21,15.19-5.06,22.8-7.6,6.42-2.15,13.02-3.82,19.29-6.32,3.46-1.38,6.82-3.63,9.52-6.23,5.04-4.85,11.84-6.88,16.35-13.04,5.83-7.94,13.98-14.11,20.93-21.25,5.44-5.6,10.6-11.49,15.81-17.31,2.57-2.87,4.98-5.88,8.3-9.81-3.25-4.15-6.67-9.05-10.66-13.42-3.58-3.92-8-7.04-11.66-10.89-3.75-3.95-6.9-8.49-10.56-12.53-3.84-4.23-8.01-8.16-11.99-12.27-1.12-1.15-2.05-2.49-3.11-3.7-4.42-5.08-9.24-9.46-15.2-12.9-3.84-2.21-6.27-6.79-9.65-9.97-10.58-9.94-21.38-19.64-31.94-29.6-3.67-3.46-6.88-7.41-10.31-11.13-1.29-1.4-2.59-2.78-3.9-4.15-5.29-5.53-10.42-11.23-15.95-16.51-2.85-2.72-6.7-4.36-9.55-7.08-3.78-3.62-6.82-8.01-10.54-11.7-3.95-3.92-8.63-7.11-12.44-11.14-4.95-5.23-9.75-10.7-13.87-16.6-2.93-4.2.84-8.05,3.19-10.98,3.78-4.72,8.85-8.36,12.81-12.95,4.43-5.13,8.78-10.49,12.17-16.33,3.56-6.14,16.36-9.41,22.36-5,4.23,3.11,8.83,5.73,12.9,9.04,2.85,2.32,4.66,6.09,7.67,8.06,13.58,8.9,24.45,21.1,37.46,30.78,10.31,7.67,18.34,18.45,27.52,27.71,6.21,6.26,12.75,12.18,18.94,18.46,3.76,3.81,7.03,8.1,10.67,12.03,7.98,8.59,15.94,17.21,24.16,25.58,3.82,3.89,8.4,7.01,12.27,10.85,5.06,5.03,9.64,10.56,14.65,15.65,4.79,4.86,9.87,9.43,15.5,14.76-1,.53-2.72,1.57-4.55,2.38-11.04,4.92-21.48,10.72-28.89,20.74-4.12,5.58-8.73,10.99-11.66,17.19-2.68,5.69-3.27,12.36-5.01,18.53-2.72,9.65.68,18.51,4.17,26.93,2.35,5.67,6.4,11.16,10.99,15.24,8.55,7.6,17.83,14.44,27.27,20.89,2.79,1.91,7.46,2.64,10.77,1.84,9.74-2.37,19.67-4.85,28.65-9.15,5.21-2.49,9.08-8.27,12.99-13.05,9.41-11.49,16.08-24.55,20.77-38.68.23-.69.72-1.43,1.3-1.8.3-.19,1.48.25,1.58.6,2.14,7.51,7.18,13.12,12.19,18.65,6.83,7.53,13.9,14.84,20.99,22.12,3.43,3.53,7.19,6.73,10.72,10.17,6.9,6.71,13.78,13.43,20.59,20.23,7.86,7.85,15.55,15.87,23.48,23.65,9.38,9.19,19.32,17.83,28.32,27.38,9.12,9.69,18.66,18.85,28.51,27.74,3.67,3.31,6.36,7.7,9.76,11.34,3.25,3.47,7.26,6.28,10.19,9.99,3.23,4.09,6.27,8.6,8.18,13.42,1.95,4.92,3.53,10.49,3.31,15.69-.38,9-3.85,16.99-9.92,24.17-4.57,5.4-9.64,9.58-15.79,12.5-4.36,2.07-9.03,3.45-13.57,5.14h-12.87c-1.14-.9-2.15-2.08-3.43-2.66-3.7-1.71-8.01-2.5-11.15-4.9-4.58-3.5-8.13-8.32-12.5-12.14-6.43-5.62-11.05-12.91-18.12-18.1-6.89-5.06-12.42-12.04-18.43-18.29-3.28-3.41-6.16-7.24-9.52-10.57-7.58-7.53-15.54-14.67-22.99-22.33-9.75-10.02-19.03-20.52-28.76-30.57-13.75-14.21-27.79-28.12-41.57-42.3-5.33-5.48-9.63-11.26-18.65-12.05-9.52-.83-17.86-.51-24.83,6.61-4.78,4.88-9.29,10.03-14.06,14.93-8.08,8.3-16.27,16.49-24.43,24.71-.81.82-1.58,1.86-2.58,2.26-6.25,2.46-8.94,8.23-11.31,13.64-1.34,3.07-.47,7.3-.04,10.95.74,6.34,2.73,12.64,2.67,18.94-.05,5.79-3.02,11.55-3.1,17.35-.2,14.83-10.16,24.71-17.62,35.44-4.59,6.61-13.14,10.31-19.52,15.78-7.11,6.09-15.42,8.65-24.3,10.26-3.53.64-6.94,2.01-10.4,3.05h-13.86ZM88.21,350.93c-32.63-.7-57.6,24.05-58.24,56.97-.58,29.73,21.84,56.86,56.59,57.37,27.32.4,56.64-30.11,55.72-61.05-.76-25.66-20.31-51.86-54.07-53.29ZM121.76,98.75c-1.24-6.12-2.03-14.09-9.09-19.67-5.18-4.09-9.75-8.97-14.58-13.51-4.19-3.94-8.27-7.99-12.56-11.8-2.76-2.45-5.94-4.42-8.73-6.86-8.96-7.83-17.76-15.84-26.75-23.63-2.33-2.02-4.51-2.75-7.65.02-5.53,4.88-10.41,10.17-14.94,15.98-4.19,5.38-9.07,10.23-13.76,15.2-2.32,2.46-4.12,4.6-.89,7.81,5.13,5.09,9.88,10.57,15.06,15.6,6.76,6.57,13.83,12.81,20.66,19.32,2.01,1.91,3.32,4.67,5.5,6.29,7.29,5.41,14.72,10.71,20.39,17.88,3.95,5,9.05,7.09,14.9,7.19,5.24.1,11.07.52,15.65-1.48,11.09-4.86,17.04-13.98,16.77-28.34ZM195.07,189.48c-2.29-3.57-4.11-7.6-6.98-10.62-7.38-7.76-15.23-15.05-22.86-22.57-1.26-1.25-2.23-2.8-3.51-4.03-4.48-4.33-9.54-8.16-13.43-12.96-6.65-8.21-13.17-11.78-20.36-9.75-7.62,2.15-11.56,11.42-6.85,17.09,5.49,6.61,11.5,12.78,17.4,19.03,4.18,4.44,8.68,8.58,12.81,13.06,7.08,7.68,13.86,15.66,21.02,23.27,5.01,5.33,5.19,5.14,11.56.98.52-.34,1.16-.47,1.74-.71,3.36-1.39,8.7-8.95,9.46-12.79ZM190.91,310.65c-2.83-6.05-4.46-11.18-9.78-14.65-4.3-2.8-6.64-1.68-9.56,1.3-8.94,9.11-17.79,18.33-26.99,27.16-5.18,4.97-6.51,8.81-2.98,12.83,1.96,2.23,4.08,4.34,6.26,6.35,5.17,4.79,5.87,4.8,12.13.76,1.2-.78,2.5-1.47,3.52-2.46,7.14-6.9,14.45-13.64,21.22-20.9,2.76-2.96,4.28-7.09,6.19-10.38ZM328.06,328.48c-.31-1.92-.6-3.85-.94-5.76-1.46-8.12-7.52-12.65-13.25-17.49-4.8-4.05-8.06-4.74-13.12-1.3-4.41,3-8.51,6.53-12.36,10.25-2.66,2.57-3.63,6.42-1.13,9.43,5.83,7.02,11.95,13.82,18.39,20.26,1.59,1.59,4.95,2.27,7.33,1.98,8.12-.99,14.8-8.76,15.08-17.38ZM420.68,444.26c-1.06,9.5,5.79,13.21,13.12,13.82,6.58.55,14.18-6.79,13.71-13.16-.48-6.4-5.58-13.95-13.14-13.96-7.66,0-13.61,5.66-13.68,13.3Z"/><path class="b" d="M92.07,492c3.46-1.04,6.87-2.41,10.4-3.05,8.88-1.61,17.2-4.18,24.3-10.26,6.38-5.47,14.93-9.17,19.52-15.78,7.46-10.73,17.41-20.61,17.62-35.44.08-5.8,3.05-11.56,3.1-17.35.06-6.3-1.93-12.6-2.67-18.94-.43-3.64-1.3-7.88.04-10.95,2.37-5.41,5.06-11.18,11.31-13.64,1-.39,1.77-1.44,2.58-2.26,8.16-8.22,16.35-16.42,24.43-24.71,4.77-4.89,9.28-10.05,14.06-14.93,6.97-7.12,15.31-7.44,24.83-6.61,9.03.79,13.33,6.57,18.65,12.05,13.78,14.18,27.82,28.09,41.57,42.3,9.73,10.05,19,20.55,28.76,30.57,7.45,7.65,15.41,14.8,22.99,22.33,3.36,3.33,6.23,7.15,9.52,10.57,6.01,6.25,11.54,13.23,18.43,18.29,7.07,5.19,11.68,12.48,18.12,18.1,4.37,3.82,7.92,8.64,12.5,12.14,3.14,2.4,7.45,3.2,11.15,4.9,1.28.59,2.29,1.76,3.43,2.66H92.07Z"/><path d="M496,55c-2.02,6.7-4.05,13.39-6.06,20.1-4.43,14.81-6.58,30.5-14.97,43.8-6.26,9.94-14.79,18.55-26.16,21.51-10.26,2.67-21.28,3.06-31.97,3.13-9.27.06-17.62,2.9-25.97,5.97-3.45,1.27-6.46,4.13-9.3,6.7-7.44,6.72-14.88,13.46-21.94,20.58-8.05,8.13-15.63,16.74-23.53,25.03-4.35,4.56-9.16,8.68-13.35,13.38-6.75,7.57-13.27,15.35-19.62,23.26-1.29,1.6-1.39,4.17-2.42,7.55-1.22-2.25-2.35-3.57-2.67-5.05-2.81-13.21-8.61-24.4-19.01-33.4-6.26-5.42-11.72-11.69-19.97-14.12-4.68-1.38-9.37-2.75-14.77-4.33,6.39-5.77,12.62-11.01,18.39-16.72,4-3.95,7.3-8.6,11.06-12.8,2.59-2.89,5.49-5.5,8.15-8.33,6.18-6.61,12.16-13.4,18.46-19.89,8.69-8.95,17.88-17.41,26.32-26.59,5.7-6.2,11.11-12.89,15.42-20.11,2.26-3.77,2.05-9.13,2.63-13.81.5-4.08.72-8.21.77-12.32.17-14.78,8.62-25.02,19.27-33.18,10.89-8.34,23.06-14.7,36.47-18.49C406.04,5.5,410.31,2.34,414.82,0c2.31,0,4.62,0,6.93,0,2.76,1.9,2.47,3.92.24,6.03-4.71,4.45-9.43,8.89-14.14,13.35-7.92,7.51-15.94,14.93-23.7,22.62-2.72,2.69-6.24,5.49-5.16,10.05.57,2.42,2.13,4.67,3.56,6.78,2.83,4.18,5.63,8.43,8.92,12.23,3.7,4.28,8.81,7.55,11.7,12.26,5.16,8.4,12.67,14.03,20.23,19.57,2.25,1.65,7.03,2.22,9.3.9,5.12-2.97,9.77-7.05,13.94-11.35,8.88-9.16,17.25-18.81,25.97-28.13,4.86-5.2,10.03-10.1,15-15.19,3.54-3.62,5.63-3.44,8.38.88v5ZM348.12,124.68c-6.25,5.41-12.42,10.34-18.1,15.78-6.82,6.54-13.24,13.52-19.81,20.33-6.97,7.22-14.08,14.31-20.77,21.79-1.54,1.73-2.98,5.78-2.07,7.11,3.19,4.7,7.12,9.03,11.39,12.79,2.01,1.78,5.02,2.36,7.55-1.21,3.69-5.21,8.1-9.95,12.55-14.55,5.66-5.84,11.87-11.14,17.47-17.04,6.95-7.32,13.59-14.95,20.18-22.61,1.29-1.49,2.31-3.69,2.45-5.63.6-8.09-4.2-12.88-10.84-16.76Z"/><path class="b" d="M496,50c-2.75-4.32-4.84-4.5-8.38-.88-4.97,5.09-10.14,10-15,15.19-8.72,9.32-17.1,18.97-25.97,28.13-4.17,4.3-8.82,8.38-13.94,11.35-2.27,1.32-7.05.75-9.3-.9-7.56-5.54-15.07-11.17-20.23-19.57-2.9-4.71-8.01-7.97-11.7-12.26-3.28-3.81-6.08-8.06-8.92-12.23-1.43-2.11-2.99-4.37-3.56-6.78-1.08-4.56,2.45-7.36,5.16-10.05,7.76-7.68,15.78-15.1,23.7-22.62,4.7-4.46,9.42-8.9,14.14-13.35,2.23-2.1,2.52-4.13-.24-6.03h74.25v50Z"/><path d="M237.28,276.22c-7.82.06-14.3-3.54-17.92-9.97-1.92-3.4-1.78-9.34-.2-13.12,3.7-8.87,10.55-14.64,20.56-16.09,8.63-1.25,16.13,5.93,17.79,16.36,1.81,11.42-9.63,23.13-20.23,22.82Z"/><path class="b" d="M88.21,350.93c33.76,1.43,53.3,27.63,54.07,53.29.92,30.95-28.4,61.46-55.72,61.05-34.75-.51-57.17-27.64-56.59-57.37.64-32.92,25.61-57.67,58.24-56.97ZM83.66,430.75c7.02.19,13.6-2.24,18.6-7.32,6.06-6.17,9.8-13.78,7.54-22.32-1.31-4.94-5.23-9.37-8.6-13.5-4.73-5.79-11.96-5.28-18.23-5-12.26.55-21.87,10.11-22.39,27.08-.3,9.82,11.87,20.76,23.09,21.06Z"/><path class="b" d="M121.76,98.75c.27,14.37-5.68,23.48-16.77,28.34-4.58,2.01-10.4,1.58-15.65,1.48-5.85-.11-10.95-2.19-14.9-7.19-5.67-7.18-13.1-12.47-20.39-17.88-2.18-1.62-3.49-4.37-5.5-6.29-6.83-6.5-13.9-12.75-20.66-19.32-5.18-5.03-9.93-10.51-15.06-15.6-3.23-3.21-1.43-5.34.89-7.81,4.69-4.98,9.57-9.82,13.76-15.2,4.53-5.81,9.41-11.1,14.94-15.98,3.14-2.77,5.32-2.04,7.65-.02,8.99,7.8,17.79,15.8,26.75,23.63,2.78,2.43,5.96,4.4,8.73,6.86,4.29,3.81,8.38,7.86,12.56,11.8,4.83,4.54,9.4,9.42,14.58,13.51,7.06,5.58,7.84,13.55,9.09,19.67Z"/><path class="b" d="M195.07,189.48c-.76,3.84-6.1,11.4-9.46,12.79-.58.24-1.22.37-1.74.71-6.37,4.16-6.55,4.35-11.56-.98-7.16-7.61-13.93-15.59-21.02-23.27-4.13-4.48-8.62-8.62-12.81-13.06-5.9-6.25-11.91-12.42-17.4-19.03-4.71-5.66-.77-14.93,6.85-17.09,7.19-2.03,13.71,1.54,20.36,9.75,3.89,4.8,8.96,8.63,13.43,12.96,1.27,1.23,2.24,2.79,3.51,4.03,7.63,7.52,15.48,14.81,22.86,22.57,2.87,3.01,4.68,7.05,6.98,10.62Z"/><path class="b" d="M190.91,310.65c-1.9,3.28-3.43,7.42-6.19,10.38-6.76,7.26-14.07,14.01-21.22,20.9-1.02.98-2.32,1.68-3.52,2.46-6.27,4.04-6.96,4.03-12.13-.76-2.18-2.02-4.3-4.12-6.26-6.35-3.52-4.02-2.2-7.86,2.98-12.83,9.2-8.83,18.05-18.05,26.99-27.16,2.92-2.98,5.27-4.1,9.56-1.3,5.32,3.47,6.94,8.6,9.78,14.65Z"/><path class="b" d="M328.06,328.48c-.28,8.62-6.96,16.38-15.08,17.38-2.38.29-5.74-.39-7.33-1.98-6.44-6.44-12.56-13.24-18.39-20.26-2.5-3.02-1.52-6.86,1.13-9.43,3.84-3.72,7.95-7.25,12.36-10.25,5.06-3.44,8.31-2.75,13.12,1.3,5.74,4.83,11.8,9.37,13.25,17.49.34,1.92.63,3.84.94,5.76Z"/><path class="b" d="M420.68,444.26c.07-7.64,6.03-13.31,13.68-13.3,7.56,0,12.66,7.56,13.14,13.96.48,6.38-7.13,13.71-13.71,13.16-7.33-.61-14.18-4.33-13.12-13.82Z"/><path class="b" d="M348.12,124.68c6.64,3.87,11.44,8.67,10.84,16.76-.15,1.95-1.17,4.14-2.45,5.63-6.59,7.66-13.23,15.29-20.18,22.61-5.6,5.9-11.81,11.19-17.47,17.04-4.45,4.6-8.86,9.34-12.55,14.55-2.53,3.57-5.54,2.99-7.55,1.21-4.27-3.76-8.2-8.09-11.39-12.79-.9-1.33.53-5.38,2.07-7.11,6.68-7.48,13.8-14.57,20.77-21.79,6.57-6.81,12.99-13.78,19.81-20.33,5.68-5.45,11.85-10.37,18.1-15.78Z"/><path d="M83.66,430.75c-11.23-.3-23.39-11.25-23.09-21.06.52-16.97,10.14-26.53,22.39-27.08,6.27-.28,13.5-.79,18.23,5,3.37,4.13,7.3,8.56,8.6,13.5,2.26,8.53-1.47,16.15-7.54,22.32-5,5.09-11.58,7.51-18.6,7.32Z"/></svg>